<svg id="Capa_1" data-name="Capa 1" xmlns="http://www.w3.org/2000/svg" xmlns:xlink="http://www.w3.org/1999/xlink" viewBox="0 0 636.38 184"><defs><style>.cls-1{fill:url(#Degradado_sin_nombre);}.cls-2{fill:#00678b;}.cls-3{fill:#fff;}</style><radialGradient id="Degradado_sin_nombre" cx="89.95" cy="-971.01" r="89.95" gradientTransform="translate(2 1063.05)" gradientUnits="userSpaceOnUse"><stop offset="0.48" stop-color="#00dbac"/><stop offset="1" stop-color="#00c0bc"/></radialGradient></defs><circle class="cls-1" cx="91.95" cy="92.04" r="89.95"/><path class="cls-2" d="M92,183.93a92,92,0,1,1,92-92A92,92,0,0,1,92,183.93ZM92,4a87.94,87.94,0,1,0,87.89,88h0A88,88,0,0,0,92,4Z" transform="translate(-0.02 0.07)"/><circle class="cls-2" cx="91.95" cy="92.04" r="43.16"/><circle class="cls-3" cx="123.81" cy="60.98" r="20.97"/><circle class="cls-3" cx="62.91" cy="122.7" r="9.28"/><path class="cls-2" d="M211,117.9V45.71h16V117.9Z" transform="translate(-0.02 0.07)"/><path class="cls-2" d="M239.76,117.9V84.66a35.63,35.63,0,0,1,1.49-11A16.82,16.82,0,0,1,246,66.19a20,20,0,0,1,8.31-4.28,48.24,48.24,0,0,1,12.38-1.38h10.27V73.34h-9.85a24.78,24.78,0,0,0-5.5.53,7.61,7.61,0,0,0-3.55,1.8,7.35,7.35,0,0,0-1.9,3.49,22.52,22.52,0,0,0-.58,5.61V117.9Z" transform="translate(-0.02 0.07)"/><path class="cls-2" d="M291.74,57.25c-2,0-3.37-.39-4.18-1.16a4.94,4.94,0,0,1-1.22-3.71V46.24a4.72,4.72,0,0,1,1.22-3.65c.81-.74,2.2-1.11,4.18-1.11h5.18q3.07,0,4.29,1.11a4.76,4.76,0,0,1,1.22,3.65v6.14a5,5,0,0,1-1.22,3.71c-.81.77-2.24,1.16-4.29,1.16Zm-5.35,60.65V62h16V117.9Z" transform="translate(-0.02 0.07)"/><path class="cls-2" d="M382.39,102.66a29.08,29.08,0,0,1-.75,7.14,8.68,8.68,0,0,1-2.91,4.72,13.53,13.53,0,0,1-5.92,2.59,48.81,48.81,0,0,1-9.8.79H313.65V105.52H361c2.12,0,3.6-.35,4.45-1.06s1.27-2,1.27-4V98.55c0-2.12-.41-3.44-1.22-4a7.85,7.85,0,0,0-4.07-.79H329.21a27,27,0,0,1-7.89-1,10.34,10.34,0,0,1-4.71-2.86,9.83,9.83,0,0,1-2.27-4.71,32.68,32.68,0,0,1-.59-6.62V74.23a22.35,22.35,0,0,1,.8-6.35,9.28,9.28,0,0,1,2.59-4.29A11.21,11.21,0,0,1,322,61.21a34,34,0,0,1,7.73-.74h21.8v12h-18a5.26,5.26,0,0,0-3.34.85,3.85,3.85,0,0,0-1,3.07V79c0,1.63.31,2.72,1,3.29a4.55,4.55,0,0,0,3.07.84H364.4a37.78,37.78,0,0,1,9,.9,12.13,12.13,0,0,1,5.5,2.86A10.19,10.19,0,0,1,381.64,92a33.58,33.58,0,0,1,.75,7.68Z" transform="translate(-0.02 0.07)"/><path class="cls-2" d="M420.13,117.9a55.47,55.47,0,0,1-13.23-1.29,18.88,18.88,0,0,1-8.47-4.24,15.78,15.78,0,0,1-4.49-7.62,43.12,43.12,0,0,1-1.33-11.59V45.71h16V92.5a20.87,20.87,0,0,0,.58,5.34,7.54,7.54,0,0,0,2.06,3.6,8.64,8.64,0,0,0,4,2.07,25.68,25.68,0,0,0,6.3.63h42.84V117.9Z" transform="translate(-0.02 0.07)"/><path class="cls-2" d="M492.33,117.9A40.64,40.64,0,0,1,482,116.84a16.63,16.63,0,0,1-6.41-3,10.4,10.4,0,0,1-3.33-4.77,19.48,19.48,0,0,1-.95-6.29v-5.4a21.09,21.09,0,0,1,.9-6.41,10.49,10.49,0,0,1,3.12-4.76,14.69,14.69,0,0,1,6.09-3,40.3,40.3,0,0,1,9.79-1h42.44V80.94c0-3.66-.74-6.12-2.22-7.36s-4-1.85-7.51-1.85H508.31V60.53H524a47,47,0,0,1,11.69,1.27,20.14,20.14,0,0,1,7.89,3.86,15.32,15.32,0,0,1,4.5,6.57,27.92,27.92,0,0,1,1.43,9.47v14a38.19,38.19,0,0,1-1.22,10.48,14,14,0,0,1-4.24,6.88,17.61,17.61,0,0,1-8,3.76,59.54,59.54,0,0,1-12.64,1.08ZM533.71,92H493a7,7,0,0,0-4.34,1.22Q487,94.4,487,97.79v3.92c0,2,.57,3.46,1.7,4.23a8.19,8.19,0,0,0,4.76,1.16h29.64a23,23,0,0,0,4.76-.42,7,7,0,0,0,3.28-1.53,6.61,6.61,0,0,0,1.91-3.13,17.77,17.77,0,0,0,.63-5.18Z" transform="translate(-0.02 0.07)"/><path class="cls-2" d="M588.65,117.9a55.72,55.72,0,0,1-13.26-1.29,18.88,18.88,0,0,1-8.47-4.24,15.72,15.72,0,0,1-4.5-7.62,43.52,43.52,0,0,1-1.32-11.59V42h15.77V60.53h31.86a56.46,56.46,0,0,1,13.34,1.32,19.4,19.4,0,0,1,8.47,4.24,16.08,16.08,0,0,1,4.5,7.67,44.41,44.41,0,0,1,1.35,11.65v7.72a43.52,43.52,0,0,1-1.32,11.59,15.88,15.88,0,0,1-4.5,7.62,18.88,18.88,0,0,1-8.47,4.24,55.94,55.94,0,0,1-13.34,1.32Zm32-32a28.14,28.14,0,0,0-.53-6,6.84,6.84,0,0,0-1.91-3.6,7.74,7.74,0,0,0-3.82-1.69,33.24,33.24,0,0,0-6.14-.48H576.9V92.87a26.3,26.3,0,0,0,.49,5.74,7,7,0,0,0,1.91,3.6,7.61,7.61,0,0,0,3.75,1.86,29,29,0,0,0,6.09.53h19a29.4,29.4,0,0,0,6.14-.53,7.63,7.63,0,0,0,3.81-1.86,7.17,7.17,0,0,0,1.93-3.6,26.89,26.89,0,0,0,.53-5.87Z" transform="translate(-0.02 0.07)"/><path class="cls-2" d="M232.3,144.81v11.51h-2.61V144.81Z" transform="translate(-0.02 0.07)"/><path class="cls-2" d="M243.3,156.32V144.81h3l2.39,4.22a33.85,33.85,0,0,1,1.88,3.94h0a42.73,42.73,0,0,1-.23-4.8v-3.36h2.4v11.51h-2.65l-2.46-4.44a41.29,41.29,0,0,1-2-4.06h0c.06,1.52.1,3.14.1,5v3.47Z" transform="translate(-0.02 0.07)"/><path class="cls-2" d="M273.39,155.79a12.84,12.84,0,0,1-3.84.65,6.36,6.36,0,0,1-4.68-1.56,5.53,5.53,0,0,1-1.62-4.18c0-3.82,2.8-6,6.57-6a8.16,8.16,0,0,1,3.2.56l-.55,2.09a6.33,6.33,0,0,0-2.68-.5,3.75,3.75,0,0,0,0,7.5h0a3.39,3.39,0,0,0,1.14-.17v-2.41h-1.77v-2h4.28Z" transform="translate(-0.02 0.07)"/><path class="cls-2" d="M291,151.45h-4.2v2.73h4.73v2.14h-7.34V144.81h7.1V147h-4.49v2.39H291Z" transform="translate(-0.02 0.07)"/><path class="cls-2" d="M302,156.32V144.81h3l2.39,4.22a33.85,33.85,0,0,1,1.88,3.94h.06a42.73,42.73,0,0,1-.22-4.8v-3.36h2.39v11.51h-2.73l-2.44-4.44c-.68-1.23-1.43-2.72-2-4.06h0c.07,1.52.1,3.14.1,5v3.47Z" transform="translate(-0.02 0.07)"/><path class="cls-2" d="M325.2,144.81v11.51h-2.62V144.81Z" transform="translate(-0.02 0.07)"/><path class="cls-2" d="M343,151.45h-4.24v2.73h4.73v2.14h-7.34V144.81h7.1V147h-4.49v2.39H343Z" transform="translate(-0.02 0.07)"/><path class="cls-2" d="M354,145a25.18,25.18,0,0,1,3.47-.23,6,6,0,0,1,3.72.9,3.11,3.11,0,0,1-.94,5.24h0a2.91,2.91,0,0,1,1.54,2.15c.36,1.3.72,2.8.94,3.25h-2.63a15.62,15.62,0,0,1-.81-2.68c-.3-1.44-.8-1.83-1.86-1.85h-.78v4.53h-2.58Zm2.58,5h1c1.3,0,2.07-.65,2.07-1.66s-.72-1.59-1.91-1.6a7.8,7.8,0,0,0-1.18.08Z" transform="translate(-0.02 0.07)"/><path class="cls-2" d="M375.53,144.81v11.51h-2.61V144.81Zm1.6-2.71-2.1,2.1H373l1.45-2.1Z" transform="translate(-0.02 0.07)"/><path class="cls-2" d="M389.2,153.36l-.82,3h-2.69l3.51-11.51h3.42l3.57,11.51h-2.8l-.89-3Zm2.92-1.94-.71-2.44c-.21-.69-.41-1.54-.59-2.22h0c-.17.68-.34,1.55-.53,2.22l-.68,2.44Z" transform="translate(-0.02 0.07)"/><path class="cls-2" d="M418.65,145a24.39,24.39,0,0,1,3.52-.23,7.48,7.48,0,0,1,4.71,1.22,5.07,5.07,0,0,1,1.95,4.34,5.83,5.83,0,0,1-1.91,4.66,8.24,8.24,0,0,1-5.31,1.49,23.21,23.21,0,0,1-3-.17Zm2.62,9.39a3.41,3.41,0,0,0,.9.06c2.36,0,3.89-1.28,3.89-4a3.29,3.29,0,0,0-2.89-3.65h0a4.33,4.33,0,0,0-.72,0,5.1,5.1,0,0,0-1.17.11Z" transform="translate(-0.02 0.07)"/><path class="cls-2" d="M446.12,151.45h-4.23v2.73h4.73v2.14h-7.34V144.81h7.11V147h-4.5v2.39h4.23Z" transform="translate(-0.02 0.07)"/><path class="cls-2" d="M469.39,153.61a6.43,6.43,0,0,0,2.89.71c1.19,0,1.82-.49,1.82-1.24s-.54-1.13-1.93-1.62c-1.91-.67-3.15-1.73-3.15-3.4,0-2,1.63-3.47,4.35-3.47a7.41,7.41,0,0,1,2.94.58l-.58,2.1a5.73,5.73,0,0,0-2.41-.54c-1.13,0-1.68.51-1.68,1.11s.65,1,2.14,1.62c2,.75,3,1.81,3,3.43,0,1.93-1.49,3.57-4.65,3.57a7.33,7.33,0,0,1-3.26-.7Z" transform="translate(-0.02 0.07)"/><path class="cls-2" d="M497.82,150.44c0,3.78-2.29,6.07-5.65,6.07s-5.41-2.58-5.41-5.86c0-3.45,2.2-6,5.6-6S497.82,147.27,497.82,150.44Zm-8.31.16c0,2.25,1.06,3.84,2.8,3.84s2.76-1.67,2.76-3.91c0-2.07-1-3.84-2.78-3.84s-2.78,1.67-2.78,3.92Z" transform="translate(-0.02 0.07)"/><path class="cls-2" d="M508.27,144.81h7V147h-4.42v2.66H515v2.12h-4.13v4.63h-2.61Z" transform="translate(-0.02 0.07)"/><path class="cls-2" d="M528.23,147h-3.09v-2.2H534V147h-3.14v9.32h-2.61Z" transform="translate(-0.02 0.07)"/><path class="cls-2" d="M546.44,156.32l-2.73-11.51h2.79l.89,4.8c.25,1.36.49,2.85.68,4h0c.19-1.25.46-2.63.75-4l1-4.71h2.76l.92,4.85c.26,1.35.45,2.58.62,3.86h0c.18-1.28.43-2.63.67-4l.94-4.71h2.66l-3,11.51h-2.81l-1-5c-.22-1.16-.4-2.24-.54-3.55h0c-.2,1.29-.39,2.39-.66,3.55l-1.09,5Z" transform="translate(-0.02 0.07)"/><path class="cls-2" d="M570.24,153.36l-.82,3h-2.69l3.51-11.51h3.42l3.57,11.51h-2.84l-.89-3Zm2.92-1.94-.71-2.44c-.21-.69-.41-1.54-.58-2.22h0c-.17.68-.34,1.55-.53,2.22l-.68,2.44Z" transform="translate(-0.02 0.07)"/><path class="cls-2" d="M587.51,145a25,25,0,0,1,3.46-.23,6,6,0,0,1,3.72.9,3.11,3.11,0,0,1-.94,5.24h0a2.91,2.91,0,0,1,1.54,2.15,30.21,30.21,0,0,0,.94,3.25h-2.67a14.75,14.75,0,0,1-.8-2.68c-.31-1.44-.8-1.83-1.86-1.85h-.79v4.53h-2.57Zm2.57,5h1c1.29,0,2.06-.65,2.06-1.66s-.71-1.59-1.91-1.6a7.8,7.8,0,0,0-1.18.08Z" transform="translate(-0.02 0.07)"/><path class="cls-2" d="M613.22,151.45H609v2.73h4.73v2.14h-7.32V144.81h7.1V147H609v2.39h4.24Z" transform="translate(-0.02 0.07)"/></svg>